<?xml version="1.0" encoding="UTF-8" standalone="no"?>
<!DOCTYPE svg PUBLIC "-//W3C//DTD SVG 1.1//EN"
 "http://www.w3.org/Graphics/SVG/1.1/DTD/svg11.dtd">
<!-- Generated by graphviz version 2.36.0 (20140111.2315)
 -->
<!-- Title: G Pages: 1 -->
<svg width="608pt" height="2054pt"
 viewBox="0.00 0.00 608.00 2054.00" xmlns="http://www.w3.org/2000/svg" xmlns:xlink="http://www.w3.org/1999/xlink">
<g id="graph0" class="graph" transform="scale(1 1) rotate(0) translate(4 2050)">
<title>G</title>
<polygon fill="white" stroke="none" points="-4,4 -4,-2050 604,-2050 604,4 -4,4"/>
<g id="clust1" class="cluster"><title>cluster_Global</title>
<path fill="none" stroke="gray" d="M37,-152C37,-152 580,-152 580,-152 586,-152 592,-158 592,-164 592,-164 592,-2026 592,-2026 592,-2032 586,-2038 580,-2038 580,-2038 37,-2038 37,-2038 31,-2038 25,-2032 25,-2026 25,-2026 25,-164 25,-164 25,-158 31,-152 37,-152"/>
<text text-anchor="middle" x="308.5" y="-2025.2" font-family="Times,serif" font-size="11.00" fill="gray">Global</text>
</g>
<g id="clust2" class="cluster"><title>cluster_\Bazalt</title>
<path fill="none" stroke="gray" d="M45,-160C45,-160 572,-160 572,-160 578,-160 584,-166 584,-172 584,-172 584,-1998 584,-1998 584,-2004 578,-2010 572,-2010 572,-2010 45,-2010 45,-2010 39,-2010 33,-2004 33,-1998 33,-1998 33,-172 33,-172 33,-166 39,-160 45,-160"/>
<text text-anchor="middle" x="308.5" y="-1997.2" font-family="Times,serif" font-size="11.00" fill="gray">Bazalt</text>
</g>
<g id="clust3" class="cluster"><title>cluster_\Bazalt\ORM</title>
<path fill="none" stroke="gray" d="M53,-214C53,-214 564,-214 564,-214 570,-214 576,-220 576,-226 576,-226 576,-1970 576,-1970 576,-1976 570,-1982 564,-1982 564,-1982 53,-1982 53,-1982 47,-1982 41,-1976 41,-1970 41,-1970 41,-226 41,-226 41,-220 47,-214 53,-214"/>
<text text-anchor="middle" x="308.5" y="-1969.2" font-family="Times,serif" font-size="11.00" fill="gray">ORM</text>
</g>
<g id="clust4" class="cluster"><title>cluster_\Bazalt\ORM\Connection</title>
<path fill="none" stroke="gray" d="M228,-1828C228,-1828 525,-1828 525,-1828 531,-1828 537,-1834 537,-1840 537,-1840 537,-1942 537,-1942 537,-1948 531,-1954 525,-1954 525,-1954 228,-1954 228,-1954 222,-1954 216,-1948 216,-1942 216,-1942 216,-1840 216,-1840 216,-1834 222,-1828 228,-1828"/>
<text text-anchor="middle" x="376.5" y="-1941.2" font-family="Times,serif" font-size="11.00" fill="gray">Connection</text>
</g>
<g id="clust5" class="cluster"><title>cluster_\Bazalt\ORM\Adapter</title>
<path fill="none" stroke="gray" d="M238,-1694C238,-1694 522,-1694 522,-1694 528,-1694 534,-1700 534,-1706 534,-1706 534,-1808 534,-1808 534,-1814 528,-1820 522,-1820 522,-1820 238,-1820 238,-1820 232,-1820 226,-1814 226,-1808 226,-1808 226,-1706 226,-1706 226,-1700 232,-1694 238,-1694"/>
<text text-anchor="middle" x="380" y="-1807.2" font-family="Times,serif" font-size="11.00" fill="gray">Adapter</text>
</g>
<g id="clust6" class="cluster"><title>cluster_\Bazalt\ORM\Generator</title>
<path fill="none" stroke="gray" d="M472,-1614C472,-1614 522,-1614 522,-1614 528,-1614 534,-1620 534,-1626 534,-1626 534,-1674 534,-1674 534,-1680 528,-1686 522,-1686 522,-1686 472,-1686 472,-1686 466,-1686 460,-1680 460,-1674 460,-1674 460,-1626 460,-1626 460,-1620 466,-1614 472,-1614"/>
<text text-anchor="middle" x="497" y="-1673.2" font-family="Times,serif" font-size="11.00" fill="gray">Generator</text>
</g>
<g id="clust7" class="cluster"><title>cluster_\Bazalt\ORM\Relation</title>
<path fill="none" stroke="gray" d="M234,-1372C234,-1372 532,-1372 532,-1372 538,-1372 544,-1378 544,-1384 544,-1384 544,-1594 544,-1594 544,-1600 538,-1606 532,-1606 532,-1606 234,-1606 234,-1606 228,-1606 222,-1600 222,-1594 222,-1594 222,-1384 222,-1384 222,-1378 228,-1372 234,-1372"/>
<text text-anchor="middle" x="383" y="-1593.2" font-family="Times,serif" font-size="11.00" fill="gray">Relation</text>
</g>
<g id="clust8" class="cluster"><title>cluster_\Bazalt\ORM\Exception</title>
<path fill="none" stroke="gray" d="M255,-968C255,-968 535,-968 535,-968 541,-968 547,-974 547,-980 547,-980 547,-1352 547,-1352 547,-1358 541,-1364 535,-1364 535,-1364 255,-1364 255,-1364 249,-1364 243,-1358 243,-1352 243,-1352 243,-980 243,-980 243,-974 249,-968 255,-968"/>
<text text-anchor="middle" x="395" y="-1351.2" font-family="Times,serif" font-size="11.00" fill="gray">Exception</text>
</g>
<g id="clust9" class="cluster"><title>cluster_\Bazalt\ORM\Plugin</title>
<path fill="none" stroke="gray" d="M241,-780C241,-780 556,-780 556,-780 562,-780 568,-786 568,-792 568,-792 568,-948 568,-948 568,-954 562,-960 556,-960 556,-960 241,-960 241,-960 235,-960 229,-954 229,-948 229,-948 229,-792 229,-792 229,-786 235,-780 241,-780"/>
<text text-anchor="middle" x="398.5" y="-947.2" font-family="Times,serif" font-size="11.00" fill="gray">Plugin</text>
</g>
<g id="clust10" class="cluster"><title>cluster_\Bazalt\ORM\Query</title>
<path fill="none" stroke="gray" d="M255,-430C255,-430 522,-430 522,-430 528,-430 534,-436 534,-442 534,-442 534,-760 534,-760 534,-766 528,-772 522,-772 522,-772 255,-772 255,-772 249,-772 243,-766 243,-760 243,-760 243,-442 243,-442 243,-436 249,-430 255,-430"/>
<text text-anchor="middle" x="388.5" y="-759.2" font-family="Times,serif" font-size="11.00" fill="gray">Query</text>
</g>
<!-- \\Bazalt\\ORM\\Connection\\Mysql -->
<g id="node1" class="node"><title>\\Bazalt\\ORM\\Connection\\Mysql</title>
<polygon fill="none" stroke="black" points="524,-1926 470,-1926 470,-1890 524,-1890 524,-1926"/>
<text text-anchor="middle" x="497" y="-1905.2" font-family="Courier,monospace" font-size="11.00">Mysql</text>
</g>
<!-- \\Bazalt\\ORM\\Connection\\AbstractConnection -->
<g id="node2" class="node"><title>\\Bazalt\\ORM\\Connection\\AbstractConnection</title>
<polygon fill="none" stroke="black" points="362,-1926 224,-1926 224,-1890 362,-1890 362,-1926"/>
<text text-anchor="start" x="259" y="-1911.2" font-family="Courier,monospace" font-size="11.00">«abstract»</text>
<text text-anchor="start" x="232" y="-1899.2" font-family="Courier,monospace" font-size="11.00">AbstractConnection</text>
</g>
<!-- \\Bazalt\\ORM\\Connection\\Mysql&#45;&gt;\\Bazalt\\ORM\\Connection\\AbstractConnection -->
<g id="edge1" class="edge"><title>\\Bazalt\\ORM\\Connection\\Mysql&#45;&gt;\\Bazalt\\ORM\\Connection\\AbstractConnection</title>
<path fill="none" stroke="black" d="M469.592,-1908C444.869,-1908 406.674,-1908 372.212,-1908"/>
<polygon fill="none" stroke="black" points="372.133,-1904.5 362.133,-1908 372.133,-1911.5 372.133,-1904.5"/>
</g>
<!-- \\Bazalt\\ORM\\Connection\\Manager -->
<g id="node3" class="node"><title>\\Bazalt\\ORM\\Connection\\Manager</title>
<polygon fill="none" stroke="black" points="529,-1872 465,-1872 465,-1836 529,-1836 529,-1872"/>
<text text-anchor="middle" x="497" y="-1851.2" font-family="Courier,monospace" font-size="11.00">Manager</text>
</g>
<!-- \\Bazalt\\ORM\\Adapter\\Sqlite -->
<g id="node4" class="node"><title>\\Bazalt\\ORM\\Adapter\\Sqlite</title>
<polygon fill="none" stroke="black" points="525.5,-1792 468.5,-1792 468.5,-1756 525.5,-1756 525.5,-1792"/>
<text text-anchor="middle" x="497" y="-1771.2" font-family="Courier,monospace" font-size="11.00">Sqlite</text>
</g>
<!-- \\Bazalt\\ORM\\Adapter\\AbstractAdapter -->
<g id="node5" class="node"><title>\\Bazalt\\ORM\\Adapter\\AbstractAdapter</title>
<polygon fill="none" stroke="black" points="352,-1765 234,-1765 234,-1729 352,-1729 352,-1765"/>
<text text-anchor="start" x="259" y="-1750.2" font-family="Courier,monospace" font-size="11.00">«abstract»</text>
<text text-anchor="start" x="242" y="-1738.2" font-family="Courier,monospace" font-size="11.00">AbstractAdapter</text>
</g>
<!-- \\Bazalt\\ORM\\Adapter\\Sqlite&#45;&gt;\\Bazalt\\ORM\\Adapter\\AbstractAdapter -->
<g id="edge2" class="edge"><title>\\Bazalt\\ORM\\Adapter\\Sqlite&#45;&gt;\\Bazalt\\ORM\\Adapter\\AbstractAdapter</title>
<path fill="none" stroke="black" d="M468.336,-1770.3C441.176,-1766.67 398.663,-1760.99 362.42,-1756.15"/>
<polygon fill="none" stroke="black" points="362.757,-1752.66 352.381,-1754.8 361.829,-1759.6 362.757,-1752.66"/>
</g>
<!-- \\Bazalt\\ORM\\Adapter\\Mysql -->
<g id="node6" class="node"><title>\\Bazalt\\ORM\\Adapter\\Mysql</title>
<polygon fill="none" stroke="black" points="524,-1738 470,-1738 470,-1702 524,-1702 524,-1738"/>
<text text-anchor="middle" x="497" y="-1717.2" font-family="Courier,monospace" font-size="11.00">Mysql</text>
</g>
<!-- \\Bazalt\\ORM\\Adapter\\Mysql&#45;&gt;\\Bazalt\\ORM\\Adapter\\AbstractAdapter -->
<g id="edge10" class="edge"><title>\\Bazalt\\ORM\\Adapter\\Mysql&#45;&gt;\\Bazalt\\ORM\\Adapter\\AbstractAdapter</title>
<path fill="none" stroke="black" d="M469.592,-1723.53C442.515,-1727.15 399.277,-1732.93 362.483,-1737.85"/>
<polygon fill="none" stroke="black" points="361.744,-1734.41 352.295,-1739.21 362.671,-1741.35 361.744,-1734.41"/>
</g>
<!-- \\Bazalt\\ORM\\Generator\\Models -->
<g id="node7" class="node"><title>\\Bazalt\\ORM\\Generator\\Models</title>
<polygon fill="none" stroke="black" points="525.5,-1658 468.5,-1658 468.5,-1622 525.5,-1622 525.5,-1658"/>
<text text-anchor="middle" x="497" y="-1637.2" font-family="Courier,monospace" font-size="11.00">Models</text>
</g>
<!-- \\Bazalt\\ORM\\Relation\\Many2Many -->
<g id="node8" class="node"><title>\\Bazalt\\ORM\\Relation\\Many2Many</title>
<polygon fill="none" stroke="black" points="535.5,-1578 458.5,-1578 458.5,-1542 535.5,-1542 535.5,-1578"/>
<text text-anchor="middle" x="497" y="-1557.2" font-family="Courier,monospace" font-size="11.00">Many2Many</text>
</g>
<!-- \\Bazalt\\ORM\\Relation\\AbstractRelation -->
<g id="node10" class="node"><title>\\Bazalt\\ORM\\Relation\\AbstractRelation</title>
<polygon fill="none" stroke="black" points="355.5,-1470 230.5,-1470 230.5,-1434 355.5,-1434 355.5,-1470"/>
<text text-anchor="start" x="259" y="-1455.2" font-family="Courier,monospace" font-size="11.00">«abstract»</text>
<text text-anchor="start" x="238.5" y="-1443.2" font-family="Courier,monospace" font-size="11.00">AbstractRelation</text>
</g>
<!-- \\Bazalt\\ORM\\Relation\\Many2Many&#45;&gt;\\Bazalt\\ORM\\Relation\\AbstractRelation -->
<g id="edge4" class="edge"><title>\\Bazalt\\ORM\\Relation\\Many2Many&#45;&gt;\\Bazalt\\ORM\\Relation\\AbstractRelation</title>
<path fill="none" stroke="black" d="M458.259,-1545.24C450.083,-1541.58 441.61,-1537.43 434,-1533 399.429,-1512.88 396.895,-1498.55 362,-1479 359.174,-1477.42 356.237,-1475.88 353.238,-1474.4"/>
<polygon fill="none" stroke="black" points="354.647,-1471.19 344.107,-1470.12 351.677,-1477.53 354.647,-1471.19"/>
</g>
<!-- \\Bazalt\\ORM\\Relation\\IRelationMany -->
<g id="node13" class="node"><title>\\Bazalt\\ORM\\Relation\\IRelationMany</title>
<polygon fill="none" stroke="black" points="345,-1524 241,-1524 241,-1488 345,-1488 345,-1524"/>
<text text-anchor="middle" x="293" y="-1503.2" font-family="Courier,monospace" font-size="11.00">IRelationMany</text>
</g>
<!-- \\Bazalt\\ORM\\Relation\\Many2Many&#45;&gt;\\Bazalt\\ORM\\Relation\\IRelationMany -->
<g id="edge5" class="edge"><title>\\Bazalt\\ORM\\Relation\\Many2Many&#45;&gt;\\Bazalt\\ORM\\Relation\\IRelationMany</title>
<path fill="none" stroke="black" stroke-dasharray="1,5" d="M458.479,-1549.97C429.402,-1542.2 388.522,-1531.27 354.792,-1522.25"/>
<polygon fill="none" stroke="black" points="355.595,-1518.84 345.03,-1519.64 353.787,-1525.61 355.595,-1518.84"/>
</g>
<!-- \\Bazalt\\ORM\\Relation\\One2Many -->
<g id="node9" class="node"><title>\\Bazalt\\ORM\\Relation\\One2Many</title>
<polygon fill="none" stroke="black" points="532.5,-1524 461.5,-1524 461.5,-1488 532.5,-1488 532.5,-1524"/>
<text text-anchor="middle" x="497" y="-1503.2" font-family="Courier,monospace" font-size="11.00">One2Many</text>
</g>
<!-- \\Bazalt\\ORM\\Relation\\One2Many&#45;&gt;\\Bazalt\\ORM\\Relation\\AbstractRelation -->
<g id="edge12" class="edge"><title>\\Bazalt\\ORM\\Relation\\One2Many&#45;&gt;\\Bazalt\\ORM\\Relation\\AbstractRelation</title>
<path fill="none" stroke="black" d="M461.275,-1496.72C435.003,-1489.69 398.018,-1479.81 365.505,-1471.12"/>
<polygon fill="none" stroke="black" points="366.139,-1467.66 355.574,-1468.46 364.331,-1474.42 366.139,-1467.66"/>
</g>
<!-- \\Bazalt\\ORM\\Relation\\One2Many&#45;&gt;\\Bazalt\\ORM\\Relation\\IRelationMany -->
<g id="edge13" class="edge"><title>\\Bazalt\\ORM\\Relation\\One2Many&#45;&gt;\\Bazalt\\ORM\\Relation\\IRelationMany</title>
<path fill="none" stroke="black" stroke-dasharray="1,5" d="M461.275,-1506C432.22,-1506 390.064,-1506 355.342,-1506"/>
<polygon fill="none" stroke="black" points="355.297,-1502.5 345.297,-1506 355.297,-1509.5 355.297,-1502.5"/>
</g>
<!-- \\Bazalt\\ORM\\Relation\\NestedSet -->
<g id="node11" class="node"><title>\\Bazalt\\ORM\\Relation\\NestedSet</title>
<polygon fill="none" stroke="black" points="535.5,-1470 458.5,-1470 458.5,-1434 535.5,-1434 535.5,-1470"/>
<text text-anchor="middle" x="497" y="-1449.2" font-family="Courier,monospace" font-size="11.00">NestedSet</text>
</g>
<!-- \\Bazalt\\ORM\\Relation\\NestedSet&#45;&gt;\\Bazalt\\ORM\\Relation\\AbstractRelation -->
<g id="edge19" class="edge"><title>\\Bazalt\\ORM\\Relation\\NestedSet&#45;&gt;\\Bazalt\\ORM\\Relation\\AbstractRelation</title>
<path fill="none" stroke="black" d="M458.479,-1452C432.432,-1452 396.912,-1452 365.546,-1452"/>
<polygon fill="none" stroke="black" points="365.525,-1448.5 355.525,-1452 365.525,-1455.5 365.525,-1448.5"/>
</g>
<!-- \\Bazalt\\ORM\\Relation\\NestedSet&#45;&gt;\\Bazalt\\ORM\\Relation\\IRelationMany -->
<g id="edge20" class="edge"><title>\\Bazalt\\ORM\\Relation\\NestedSet&#45;&gt;\\Bazalt\\ORM\\Relation\\IRelationMany</title>
<path fill="none" stroke="black" stroke-dasharray="1,5" d="M458.479,-1462.03C429.402,-1469.8 388.522,-1480.73 354.792,-1489.75"/>
<polygon fill="none" stroke="black" points="353.787,-1486.39 345.03,-1492.36 355.595,-1493.16 353.787,-1486.39"/>
</g>
<!-- \\Bazalt\\ORM\\Relation\\One2One -->
<g id="node12" class="node"><title>\\Bazalt\\ORM\\Relation\\One2One</title>
<polygon fill="none" stroke="black" points="529,-1416 465,-1416 465,-1380 529,-1380 529,-1416"/>
<text text-anchor="middle" x="497" y="-1395.2" font-family="Courier,monospace" font-size="11.00">One2One</text>
</g>
<!-- \\Bazalt\\ORM\\Relation\\One2One&#45;&gt;\\Bazalt\\ORM\\Relation\\AbstractRelation -->
<g id="edge26" class="edge"><title>\\Bazalt\\ORM\\Relation\\One2One&#45;&gt;\\Bazalt\\ORM\\Relation\\AbstractRelation</title>
<path fill="none" stroke="black" d="M464.88,-1406.32C438.49,-1413.37 399.615,-1423.77 365.609,-1432.86"/>
<polygon fill="none" stroke="black" points="364.455,-1429.54 355.698,-1435.51 366.263,-1436.31 364.455,-1429.54"/>
</g>
<!-- \\Bazalt\\ORM\\Relation\\IRelationOne -->
<g id="node14" class="node"><title>\\Bazalt\\ORM\\Relation\\IRelationOne</title>
<polygon fill="none" stroke="black" points="342,-1416 244,-1416 244,-1380 342,-1380 342,-1416"/>
<text text-anchor="middle" x="293" y="-1395.2" font-family="Courier,monospace" font-size="11.00">IRelationOne</text>
</g>
<!-- \\Bazalt\\ORM\\Relation\\One2One&#45;&gt;\\Bazalt\\ORM\\Relation\\IRelationOne -->
<g id="edge27" class="edge"><title>\\Bazalt\\ORM\\Relation\\One2One&#45;&gt;\\Bazalt\\ORM\\Relation\\IRelationOne</title>
<path fill="none" stroke="black" stroke-dasharray="1,5" d="M464.88,-1398C434.937,-1398 388.922,-1398 352.183,-1398"/>
<polygon fill="none" stroke="black" points="352.087,-1394.5 342.087,-1398 352.087,-1401.5 352.087,-1394.5"/>
</g>
<!-- \\Iterator -->
<g id="node43" class="node"><title>\\Iterator</title>
<ellipse fill="none" stroke="black" cx="76" cy="-126" rx="38.9931" ry="18"/>
<text text-anchor="middle" x="76" y="-122.3" font-family="Times,serif" font-size="14.00" fill="gray">\Iterator</text>
</g>
<!-- \\Bazalt\\ORM\\Relation\\IRelationMany&#45;&gt;\\Iterator -->
<g id="edge32" class="edge"><title>\\Bazalt\\ORM\\Relation\\IRelationMany&#45;&gt;\\Iterator</title>
<path fill="none" stroke="black" d="M240.761,-1497.07C231.148,-1493.07 222.187,-1487.31 216,-1479 131.698,-1365.75 205.625,-340.598 152,-210 142.045,-185.755 121.948,-163.867 105.062,-148.516"/>
<polygon fill="none" stroke="black" points="106.915,-145.486 97.0886,-141.524 102.299,-150.749 106.915,-145.486"/>
</g>
<!-- \\Bazalt\\ORM\\Relation\\IRelationOne&#45;&gt;\\Iterator -->
<g id="edge33" class="edge"><title>\\Bazalt\\ORM\\Relation\\IRelationOne&#45;&gt;\\Iterator</title>
<path fill="none" stroke="black" d="M243.83,-1388.34C233.05,-1383.9 222.806,-1377.43 216,-1368 65.2003,-1159 250.469,-448.173 152,-210 141.986,-185.779 121.892,-163.89 105.022,-148.532"/>
<polygon fill="none" stroke="black" points="106.88,-145.506 97.0575,-141.537 102.261,-150.766 106.88,-145.506"/>
</g>
<!-- \\Bazalt\\ORM\\Exception\\Base -->
<g id="node15" class="node"><title>\\Bazalt\\ORM\\Exception\\Base</title>
<polygon fill="none" stroke="black" points="335,-1147 251,-1147 251,-1111 335,-1111 335,-1147"/>
<text text-anchor="start" x="259" y="-1132.2" font-family="Courier,monospace" font-size="11.00">«abstract»</text>
<text text-anchor="start" x="279" y="-1120.2" font-family="Courier,monospace" font-size="11.00">Base</text>
</g>
<!-- \\Exception -->
<g id="node42" class="node"><title>\\Exception</title>
<ellipse fill="none" stroke="black" cx="76" cy="-72" rx="48.9926" ry="18"/>
<text text-anchor="middle" x="76" y="-68.3" font-family="Times,serif" font-size="14.00" fill="gray">\Exception</text>
</g>
<!-- \\Bazalt\\ORM\\Exception\\Base&#45;&gt;\\Exception -->
<g id="edge6" class="edge"><title>\\Bazalt\\ORM\\Exception\\Base&#45;&gt;\\Exception</title>
<path fill="none" stroke="black" d="M280.79,-1110.52C263.424,-1080.84 230.511,-1020.19 216,-964 167.801,-777.376 268.579,-252.496 152,-99 146.527,-91.7935 138.956,-86.5069 130.717,-82.6296"/>
<polygon fill="none" stroke="black" points="131.791,-79.2896 121.206,-78.8236 129.19,-85.7885 131.791,-79.2896"/>
</g>
<!-- \\Bazalt\\ORM\\Exception\\NestedSet -->
<g id="node16" class="node"><title>\\Bazalt\\ORM\\Exception\\NestedSet</title>
<polygon fill="none" stroke="black" points="535.5,-1336 458.5,-1336 458.5,-1300 535.5,-1300 535.5,-1336"/>
<text text-anchor="middle" x="497" y="-1315.2" font-family="Courier,monospace" font-size="11.00">NestedSet</text>
</g>
<!-- \\Bazalt\\ORM\\Exception\\NestedSet&#45;&gt;\\Bazalt\\ORM\\Exception\\Base -->
<g id="edge7" class="edge"><title>\\Bazalt\\ORM\\Exception\\NestedSet&#45;&gt;\\Bazalt\\ORM\\Exception\\Base</title>
<path fill="none" stroke="black" d="M458.457,-1304.86C450.012,-1301.05 441.376,-1296.43 434,-1291 381.422,-1252.31 335.097,-1190.46 311.189,-1155.44"/>
<polygon fill="none" stroke="black" points="314.092,-1153.49 305.604,-1147.15 308.286,-1157.4 314.092,-1153.49"/>
</g>
<!-- \\Bazalt\\ORM\\Exception\\Insert -->
<g id="node17" class="node"><title>\\Bazalt\\ORM\\Exception\\Insert</title>
<polygon fill="none" stroke="black" points="525.5,-1282 468.5,-1282 468.5,-1246 525.5,-1246 525.5,-1282"/>
<text text-anchor="middle" x="497" y="-1261.2" font-family="Courier,monospace" font-size="11.00">Insert</text>
</g>
<!-- \\Bazalt\\ORM\\Exception\\Insert&#45;&gt;\\Bazalt\\ORM\\Exception\\Base -->
<g id="edge11" class="edge"><title>\\Bazalt\\ORM\\Exception\\Insert&#45;&gt;\\Bazalt\\ORM\\Exception\\Base</title>
<path fill="none" stroke="black" d="M468.429,-1253.7C457.419,-1249.16 444.814,-1243.39 434,-1237 392.392,-1212.4 349.004,-1177.21 321.767,-1153.75"/>
<polygon fill="none" stroke="black" points="324.035,-1151.09 314.19,-1147.17 319.445,-1156.37 324.035,-1151.09"/>
</g>
<!-- \\Bazalt\\ORM\\Exception\\Database -->
<g id="node18" class="node"><title>\\Bazalt\\ORM\\Exception\\Database</title>
<polygon fill="none" stroke="black" points="532.5,-1228 461.5,-1228 461.5,-1192 532.5,-1192 532.5,-1228"/>
<text text-anchor="middle" x="497" y="-1207.2" font-family="Courier,monospace" font-size="11.00">Database</text>
</g>
<!-- \\Bazalt\\ORM\\Exception\\Database&#45;&gt;\\Bazalt\\ORM\\Exception\\Base -->
<g id="edge15" class="edge"><title>\\Bazalt\\ORM\\Exception\\Database&#45;&gt;\\Bazalt\\ORM\\Exception\\Base</title>
<path fill="none" stroke="black" d="M461.275,-1196.08C429.175,-1183.2 381.083,-1163.92 344.693,-1149.33"/>
<polygon fill="none" stroke="black" points="345.822,-1146.01 335.237,-1145.54 343.216,-1152.51 345.822,-1146.01"/>
</g>
<!-- \\Bazalt\\ORM\\Exception\\Table -->
<g id="node19" class="node"><title>\\Bazalt\\ORM\\Exception\\Table</title>
<polygon fill="none" stroke="black" points="524,-1174 470,-1174 470,-1138 524,-1138 524,-1174"/>
<text text-anchor="middle" x="497" y="-1153.2" font-family="Courier,monospace" font-size="11.00">Table</text>
</g>
<!-- \\Bazalt\\ORM\\Exception\\Table&#45;&gt;\\Bazalt\\ORM\\Exception\\Base -->
<g id="edge18" class="edge"><title>\\Bazalt\\ORM\\Exception\\Table&#45;&gt;\\Bazalt\\ORM\\Exception\\Base</title>
<path fill="none" stroke="black" d="M469.592,-1152.47C438.111,-1148.26 384.785,-1141.13 345.14,-1135.84"/>
<polygon fill="none" stroke="black" points="345.497,-1132.35 335.121,-1134.5 344.569,-1139.29 345.497,-1132.35"/>
</g>
<!-- \\Bazalt\\ORM\\Exception\\Collection -->
<g id="node20" class="node"><title>\\Bazalt\\ORM\\Exception\\Collection</title>
<polygon fill="none" stroke="black" points="539,-1120 455,-1120 455,-1084 539,-1084 539,-1120"/>
<text text-anchor="middle" x="497" y="-1099.2" font-family="Courier,monospace" font-size="11.00">Collection</text>
</g>
<!-- \\Bazalt\\ORM\\Exception\\Collection&#45;&gt;\\Bazalt\\ORM\\Exception\\Base -->
<g id="edge24" class="edge"><title>\\Bazalt\\ORM\\Exception\\Collection&#45;&gt;\\Bazalt\\ORM\\Exception\\Base</title>
<path fill="none" stroke="black" d="M454.635,-1107.53C423.044,-1111.75 379.327,-1117.59 345.475,-1122.12"/>
<polygon fill="none" stroke="black" points="344.758,-1118.68 335.31,-1123.48 345.685,-1125.62 344.758,-1118.68"/>
</g>
<!-- \\Bazalt\\ORM\\Exception\\Query -->
<g id="node21" class="node"><title>\\Bazalt\\ORM\\Exception\\Query</title>
<polygon fill="none" stroke="black" points="524,-1066 470,-1066 470,-1030 524,-1030 524,-1066"/>
<text text-anchor="middle" x="497" y="-1045.2" font-family="Courier,monospace" font-size="11.00">Query</text>
</g>
<!-- \\Bazalt\\ORM\\Exception\\Query&#45;&gt;\\Bazalt\\ORM\\Exception\\Base -->
<g id="edge25" class="edge"><title>\\Bazalt\\ORM\\Exception\\Query&#45;&gt;\\Bazalt\\ORM\\Exception\\Base</title>
<path fill="none" stroke="black" d="M469.592,-1058.59C437.977,-1071.27 384.331,-1092.78 344.636,-1108.7"/>
<polygon fill="none" stroke="black" points="343.1,-1105.54 335.121,-1112.51 345.705,-1112.04 343.1,-1105.54"/>
</g>
<!-- \\Bazalt\\ORM\\Exception\\Model -->
<g id="node22" class="node"><title>\\Bazalt\\ORM\\Exception\\Model</title>
<polygon fill="none" stroke="black" points="524,-1012 470,-1012 470,-976 524,-976 524,-1012"/>
<text text-anchor="middle" x="497" y="-991.2" font-family="Courier,monospace" font-size="11.00">Model</text>
</g>
<!-- \\Bazalt\\ORM\\Exception\\Model&#45;&gt;\\Bazalt\\ORM\\Exception\\Base -->
<g id="edge28" class="edge"><title>\\Bazalt\\ORM\\Exception\\Model&#45;&gt;\\Bazalt\\ORM\\Exception\\Base</title>
<path fill="none" stroke="black" d="M469.962,-1003.67C458.601,-1008.3 445.319,-1014.31 434,-1021 392.392,-1045.6 349.004,-1080.79 321.767,-1104.25"/>
<polygon fill="none" stroke="black" points="319.445,-1101.63 314.19,-1110.83 324.035,-1106.91 319.445,-1101.63"/>
</g>
<!-- \\Bazalt\\ORM\\Plugin\\Timestampable -->
<g id="node23" class="node"><title>\\Bazalt\\ORM\\Plugin\\Timestampable</title>
<polygon fill="none" stroke="black" points="549,-932 445,-932 445,-896 549,-896 549,-932"/>
<text text-anchor="middle" x="497" y="-911.2" font-family="Courier,monospace" font-size="11.00">Timestampable</text>
</g>
<!-- \\Bazalt\\ORM\\Plugin\\AbstractPlugin -->
<g id="node24" class="node"><title>\\Bazalt\\ORM\\Plugin\\AbstractPlugin</title>
<polygon fill="none" stroke="black" points="348.5,-878 237.5,-878 237.5,-842 348.5,-842 348.5,-878"/>
<text text-anchor="start" x="259" y="-863.2" font-family="Courier,monospace" font-size="11.00">«abstract»</text>
<text text-anchor="start" x="245.5" y="-851.2" font-family="Courier,monospace" font-size="11.00">AbstractPlugin</text>
</g>
<!-- \\Bazalt\\ORM\\Plugin\\Timestampable&#45;&gt;\\Bazalt\\ORM\\Plugin\\AbstractPlugin -->
<g id="edge8" class="edge"><title>\\Bazalt\\ORM\\Plugin\\Timestampable&#45;&gt;\\Bazalt\\ORM\\Plugin\\AbstractPlugin</title>
<path fill="none" stroke="black" d="M444.766,-900.304C418.522,-893.288 386.302,-884.675 358.394,-877.214"/>
<polygon fill="none" stroke="black" points="359.284,-873.829 348.72,-874.628 357.477,-880.592 359.284,-873.829"/>
</g>
<!-- \\Bazalt\\ORM\\Plugin\\RelationsCounter -->
<g id="node25" class="node"><title>\\Bazalt\\ORM\\Plugin\\RelationsCounter</title>
<polygon fill="none" stroke="black" points="559.5,-878 434.5,-878 434.5,-842 559.5,-842 559.5,-878"/>
<text text-anchor="middle" x="497" y="-857.2" font-family="Courier,monospace" font-size="11.00">RelationsCounter</text>
</g>
<!-- \\Bazalt\\ORM\\Plugin\\RelationsCounter&#45;&gt;\\Bazalt\\ORM\\Plugin\\AbstractPlugin -->
<g id="edge17" class="edge"><title>\\Bazalt\\ORM\\Plugin\\RelationsCounter&#45;&gt;\\Bazalt\\ORM\\Plugin\\AbstractPlugin</title>
<path fill="none" stroke="black" d="M434.296,-860C410.438,-860 383.115,-860 358.958,-860"/>
<polygon fill="none" stroke="black" points="358.818,-856.5 348.818,-860 358.818,-863.5 358.818,-856.5"/>
</g>
<!-- \\Bazalt\\ORM\\Plugin\\Serializable -->
<g id="node26" class="node"><title>\\Bazalt\\ORM\\Plugin\\Serializable</title>
<polygon fill="none" stroke="black" points="546,-824 448,-824 448,-788 546,-788 546,-824"/>
<text text-anchor="middle" x="497" y="-803.2" font-family="Courier,monospace" font-size="11.00">Serializable</text>
</g>
<!-- \\Bazalt\\ORM\\Plugin\\Serializable&#45;&gt;\\Bazalt\\ORM\\Plugin\\AbstractPlugin -->
<g id="edge21" class="edge"><title>\\Bazalt\\ORM\\Plugin\\Serializable&#45;&gt;\\Bazalt\\ORM\\Plugin\\AbstractPlugin</title>
<path fill="none" stroke="black" d="M447.873,-818.866C421.15,-826.01 387.55,-834.992 358.57,-842.739"/>
<polygon fill="none" stroke="black" points="357.288,-839.458 348.531,-845.422 359.096,-846.221 357.288,-839.458"/>
</g>
<!-- \\Bazalt\\ORM\\Query\\Insert -->
<g id="node27" class="node"><title>\\Bazalt\\ORM\\Query\\Insert</title>
<polygon fill="none" stroke="black" points="525.5,-744 468.5,-744 468.5,-708 525.5,-708 525.5,-744"/>
<text text-anchor="middle" x="497" y="-723.2" font-family="Courier,monospace" font-size="11.00">Insert</text>
</g>
<!-- \\Bazalt\\ORM\\Query\\Builder -->
<g id="node29" class="node"><title>\\Bazalt\\ORM\\Query\\Builder</title>
<polygon fill="none" stroke="black" points="335,-609 251,-609 251,-573 335,-573 335,-609"/>
<text text-anchor="start" x="259" y="-594.2" font-family="Courier,monospace" font-size="11.00">«abstract»</text>
<text text-anchor="start" x="269" y="-582.2" font-family="Courier,monospace" font-size="11.00">Builder</text>
</g>
<!-- \\Bazalt\\ORM\\Query\\Insert&#45;&gt;\\Bazalt\\ORM\\Query\\Builder -->
<g id="edge9" class="edge"><title>\\Bazalt\\ORM\\Query\\Insert&#45;&gt;\\Bazalt\\ORM\\Query\\Builder</title>
<path fill="none" stroke="black" d="M468.429,-715.704C457.419,-711.158 444.814,-705.393 434,-699 392.392,-674.403 349.004,-639.206 321.767,-615.754"/>
<polygon fill="none" stroke="black" points="324.035,-613.089 314.19,-609.174 319.445,-618.374 324.035,-613.089"/>
</g>
<!-- \\Bazalt\\ORM\\Query\\Join -->
<g id="node28" class="node"><title>\\Bazalt\\ORM\\Query\\Join</title>
<polygon fill="none" stroke="black" points="524,-690 470,-690 470,-654 524,-654 524,-690"/>
<text text-anchor="middle" x="497" y="-669.2" font-family="Courier,monospace" font-size="11.00">Join</text>
</g>
<!-- \\Bazalt\\ORM\\Query\\Join&#45;&gt;\\Bazalt\\ORM\\Query\\Builder -->
<g id="edge14" class="edge"><title>\\Bazalt\\ORM\\Query\\Join&#45;&gt;\\Bazalt\\ORM\\Query\\Builder</title>
<path fill="none" stroke="black" d="M469.592,-661.411C437.977,-648.733 384.331,-627.222 344.636,-611.304"/>
<polygon fill="none" stroke="black" points="345.705,-607.963 335.121,-607.489 343.1,-614.46 345.705,-607.963"/>
</g>
<!-- \\Bazalt\\ORM\\Query -->
<g id="node39" class="node"><title>\\Bazalt\\ORM\\Query</title>
<polygon fill="none" stroke="black" points="103,-609 49,-609 49,-573 103,-573 103,-609"/>
<text text-anchor="middle" x="76" y="-588.2" font-family="Courier,monospace" font-size="11.00">Query</text>
</g>
<!-- \\Bazalt\\ORM\\Query\\Builder&#45;&gt;\\Bazalt\\ORM\\Query -->
<g id="edge22" class="edge"><title>\\Bazalt\\ORM\\Query\\Builder&#45;&gt;\\Bazalt\\ORM\\Query</title>
<path fill="none" stroke="black" d="M250.8,-591C211.012,-591 151.342,-591 113.296,-591"/>
<polygon fill="none" stroke="black" points="113.173,-587.5 103.173,-591 113.173,-594.5 113.173,-587.5"/>
</g>
<!-- \\Bazalt\\ORM\\Query\\Union -->
<g id="node30" class="node"><title>\\Bazalt\\ORM\\Query\\Union</title>
<polygon fill="none" stroke="black" points="524,-636 470,-636 470,-600 524,-600 524,-636"/>
<text text-anchor="middle" x="497" y="-615.2" font-family="Courier,monospace" font-size="11.00">Union</text>
</g>
<!-- \\Bazalt\\ORM\\Query\\Union&#45;&gt;\\Bazalt\\ORM\\Query\\Builder -->
<g id="edge23" class="edge"><title>\\Bazalt\\ORM\\Query\\Union&#45;&gt;\\Bazalt\\ORM\\Query\\Builder</title>
<path fill="none" stroke="black" d="M469.592,-614.47C438.111,-610.262 384.785,-603.135 345.14,-597.836"/>
<polygon fill="none" stroke="black" points="345.497,-594.352 335.121,-596.496 344.569,-601.29 345.497,-594.352"/>
</g>
<!-- \\Bazalt\\ORM\\Query\\Update -->
<g id="node31" class="node"><title>\\Bazalt\\ORM\\Query\\Update</title>
<polygon fill="none" stroke="black" points="525.5,-582 468.5,-582 468.5,-546 525.5,-546 525.5,-582"/>
<text text-anchor="middle" x="497" y="-561.2" font-family="Courier,monospace" font-size="11.00">Update</text>
</g>
<!-- \\Bazalt\\ORM\\Query\\Update&#45;&gt;\\Bazalt\\ORM\\Query\\Builder -->
<g id="edge29" class="edge"><title>\\Bazalt\\ORM\\Query\\Update&#45;&gt;\\Bazalt\\ORM\\Query\\Builder</title>
<path fill="none" stroke="black" d="M468.336,-567.698C436.794,-571.914 384.549,-578.897 345.461,-584.122"/>
<polygon fill="none" stroke="black" points="344.769,-580.683 335.321,-585.477 345.697,-587.621 344.769,-580.683"/>
</g>
<!-- \\Bazalt\\ORM\\Query\\Select -->
<g id="node32" class="node"><title>\\Bazalt\\ORM\\Query\\Select</title>
<polygon fill="none" stroke="black" points="525.5,-528 468.5,-528 468.5,-492 525.5,-492 525.5,-528"/>
<text text-anchor="middle" x="497" y="-507.2" font-family="Courier,monospace" font-size="11.00">Select</text>
</g>
<!-- \\Bazalt\\ORM\\Query\\Select&#45;&gt;\\Bazalt\\ORM\\Query\\Builder -->
<g id="edge30" class="edge"><title>\\Bazalt\\ORM\\Query\\Select&#45;&gt;\\Bazalt\\ORM\\Query\\Builder</title>
<path fill="none" stroke="black" d="M468.203,-522.052C457.504,-526.705 445.176,-532.083 434,-537 401.947,-551.102 394.704,-556.482 362,-569 356.506,-571.103 350.716,-573.181 344.926,-575.172"/>
<polygon fill="none" stroke="black" points="343.6,-571.925 335.237,-578.429 345.831,-578.56 343.6,-571.925"/>
</g>
<!-- \\Bazalt\\ORM\\Query\\Delete -->
<g id="node33" class="node"><title>\\Bazalt\\ORM\\Query\\Delete</title>
<polygon fill="none" stroke="black" points="525.5,-474 468.5,-474 468.5,-438 525.5,-438 525.5,-474"/>
<text text-anchor="middle" x="497" y="-453.2" font-family="Courier,monospace" font-size="11.00">Delete</text>
</g>
<!-- \\Bazalt\\ORM\\Query\\Delete&#45;&gt;\\Bazalt\\ORM\\Query\\Builder -->
<g id="edge31" class="edge"><title>\\Bazalt\\ORM\\Query\\Delete&#45;&gt;\\Bazalt\\ORM\\Query\\Builder</title>
<path fill="none" stroke="black" d="M468.285,-464.901C457.008,-469.302 444.247,-475.335 434,-483 394.083,-512.859 403.329,-541.128 362,-569 356.734,-572.551 350.856,-575.562 344.82,-578.106"/>
<polygon fill="none" stroke="black" points="343.378,-574.91 335.271,-581.731 345.862,-581.454 343.378,-574.91"/>
</g>
<!-- \\Bazalt\\ORM\\BaseRecord -->
<g id="node34" class="node"><title>\\Bazalt\\ORM\\BaseRecord</title>
<polygon fill="none" stroke="black" points="335,-312 251,-312 251,-276 335,-276 335,-312"/>
<text text-anchor="start" x="259" y="-297.2" font-family="Courier,monospace" font-size="11.00">«abstract»</text>
<text text-anchor="start" x="259" y="-285.2" font-family="Courier,monospace" font-size="11.00">BaseRecord</text>
</g>
<!-- \\IteratorAggregate -->
<g id="node41" class="node"><title>\\IteratorAggregate</title>
<ellipse fill="none" stroke="black" cx="76" cy="-18" rx="75.2868" ry="18"/>
<text text-anchor="middle" x="76" y="-14.3" font-family="Times,serif" font-size="14.00" fill="gray">\IteratorAggregate</text>
</g>
<!-- \\Bazalt\\ORM\\BaseRecord&#45;&gt;\\IteratorAggregate -->
<g id="edge3" class="edge"><title>\\Bazalt\\ORM\\BaseRecord&#45;&gt;\\IteratorAggregate</title>
<path fill="none" stroke="black" stroke-dasharray="1,5" d="M286.683,-275.775C272.493,-230.246 229.434,-110.497 152,-45 147.708,-41.3693 142.889,-38.2109 137.819,-35.4665"/>
<polygon fill="none" stroke="black" points="139.008,-32.1543 128.481,-30.9608 135.966,-38.4588 139.008,-32.1543"/>
</g>
<!-- \\Bazalt\\ORM\\Column -->
<g id="node35" class="node"><title>\\Bazalt\\ORM\\Column</title>
<polygon fill="none" stroke="black" points="525.5,-420 468.5,-420 468.5,-384 525.5,-384 525.5,-420"/>
<text text-anchor="middle" x="497" y="-399.2" font-family="Courier,monospace" font-size="11.00">Column</text>
</g>
<!-- \\Bazalt\\ORM\\Record -->
<g id="node36" class="node"><title>\\Bazalt\\ORM\\Record</title>
<polygon fill="none" stroke="black" points="539,-366 455,-366 455,-330 539,-330 539,-366"/>
<text text-anchor="start" x="463" y="-351.2" font-family="Courier,monospace" font-size="11.00">«abstract»</text>
<text text-anchor="start" x="476.5" y="-339.2" font-family="Courier,monospace" font-size="11.00">Record</text>
</g>
<!-- \\Bazalt\\ORM\\Record&#45;&gt;\\Bazalt\\ORM\\BaseRecord -->
<g id="edge16" class="edge"><title>\\Bazalt\\ORM\\Record&#45;&gt;\\Bazalt\\ORM\\BaseRecord</title>
<path fill="none" stroke="black" d="M454.635,-336.942C422.908,-328.461 378.95,-316.709 345.038,-307.644"/>
<polygon fill="none" stroke="black" points="345.875,-304.245 335.31,-305.043 344.067,-311.007 345.875,-304.245"/>
</g>
<!-- \\Bazalt\\ORM\\Collection -->
<g id="node37" class="node"><title>\\Bazalt\\ORM\\Collection</title>
<polygon fill="none" stroke="black" points="539,-312 455,-312 455,-276 539,-276 539,-312"/>
<text text-anchor="middle" x="497" y="-291.2" font-family="Courier,monospace" font-size="11.00">Collection</text>
</g>
<!-- \\Bazalt\\ORM\\CacheAdapter -->
<g id="node38" class="node"><title>\\Bazalt\\ORM\\CacheAdapter</title>
<polygon fill="none" stroke="black" points="546,-258 448,-258 448,-222 546,-222 546,-258"/>
<text text-anchor="middle" x="497" y="-237.2" font-family="Courier,monospace" font-size="11.00">CacheAdapter</text>
</g>
<!-- \\Bazalt\\ORM -->
<g id="node40" class="node"><title>\\Bazalt\\ORM</title>
<polygon fill="none" stroke="black" points="524,-204 470,-204 470,-168 524,-168 524,-204"/>
<text text-anchor="middle" x="497" y="-183.2" font-family="Courier,monospace" font-size="11.00">ORM</text>
</g>
</g>
</svg>
